<mxfile host="65bd71144e">
    <diagram id="VUyO2vxP6UChG01Sqfjq" name="Page-1">
        <mxGraphModel dx="4534" dy="2030" grid="1" gridSize="10" guides="1" tooltips="1" connect="1" arrows="1" fold="1" page="1" pageScale="1" pageWidth="827" pageHeight="1169" math="0" shadow="0">
            <root>
                <mxCell id="0"/>
                <mxCell id="1" parent="0"/>
                <mxCell id="2" value="" style="rounded=0;whiteSpace=wrap;html=1;" parent="1" vertex="1">
                    <mxGeometry x="-720" y="40" width="480" height="520" as="geometry"/>
                </mxCell>
                <mxCell id="3" value="&lt;font style=&quot;font-size: 33px;&quot;&gt;Question&lt;/font&gt;" style="shape=note;whiteSpace=wrap;html=1;backgroundOutline=1;darkOpacity=0.05;fillStyle=solid;direction=west;gradientDirection=north;shadow=1;size=0;pointerEvents=1;fillColor=#647687;fontColor=#ffffff;strokeColor=#314354;" parent="1" vertex="1">
                    <mxGeometry x="-710" y="50" width="460" height="60" as="geometry"/>
                </mxCell>
                <mxCell id="4" value="" style="rounded=0;whiteSpace=wrap;html=1;fontSize=33;fillColor=#647687;fontColor=#ffffff;strokeColor=#314354;" parent="1" vertex="1">
                    <mxGeometry x="-710" y="140" width="460" height="410" as="geometry"/>
                </mxCell>
                <mxCell id="5" value="&lt;font style=&quot;font-size: 20px;&quot;&gt;Quel sera le genre de votre aventure ?&lt;/font&gt;" style="text;html=1;strokeColor=none;fillColor=none;align=center;verticalAlign=middle;whiteSpace=wrap;rounded=0;fontSize=33;" parent="1" vertex="1">
                    <mxGeometry x="-700" y="150" width="360" height="30" as="geometry"/>
                </mxCell>
                <mxCell id="6" value="&lt;p style=&quot;line-height: 90%;&quot;&gt;&lt;font style=&quot;font-size: 20px;&quot;&gt;Est-ce que votre histoire est inspirée d'une histoire existante?&amp;nbsp;&lt;/font&gt;&lt;/p&gt;" style="text;html=1;strokeColor=none;fillColor=none;align=left;verticalAlign=middle;whiteSpace=wrap;rounded=0;fontSize=33;" parent="1" vertex="1">
                    <mxGeometry x="-690" y="266" width="436" height="30" as="geometry"/>
                </mxCell>
                <mxCell id="7" value="&lt;p style=&quot;line-height: 40%;&quot;&gt;&lt;font style=&quot;font-size: 17px;&quot;&gt;* Les œuvres de H.P. Lovecraft &amp;amp; &lt;br&gt;l'atmosphère de &quot;Silent Hill&quot;&lt;/font&gt;&lt;/p&gt;" style="text;html=1;strokeColor=none;fillColor=none;align=center;verticalAlign=middle;whiteSpace=wrap;rounded=0;fontSize=33;" parent="1" vertex="1">
                    <mxGeometry x="-790" y="347" width="476" height="30" as="geometry"/>
                </mxCell>
                <mxCell id="8" value="&lt;font style=&quot;font-size: 17px;&quot;&gt;* Horreur, Mystère, Surnaturel&lt;/font&gt;" style="text;html=1;strokeColor=none;fillColor=none;align=center;verticalAlign=middle;whiteSpace=wrap;rounded=0;fontSize=33;" parent="1" vertex="1">
                    <mxGeometry x="-840" y="200" width="540" height="30" as="geometry"/>
                </mxCell>
                <mxCell id="13" value="&lt;font style=&quot;font-size: 20px;&quot;&gt;Quel sera le nom de votre histoire?&amp;nbsp;&lt;/font&gt;" style="text;html=1;strokeColor=none;fillColor=none;align=center;verticalAlign=middle;whiteSpace=wrap;rounded=0;fontSize=17;" parent="1" vertex="1">
                    <mxGeometry x="-697" y="404" width="340" height="30" as="geometry"/>
                </mxCell>
                <mxCell id="14" value="&lt;font style=&quot;font-size: 17px;&quot;&gt;* Les Résonances de l'Abyss&lt;/font&gt;" style="text;html=1;strokeColor=none;fillColor=none;align=center;verticalAlign=middle;whiteSpace=wrap;rounded=0;fontSize=20;" parent="1" vertex="1">
                    <mxGeometry x="-697" y="458" width="270" height="30" as="geometry"/>
                </mxCell>
                <mxCell id="17" value="" style="rounded=0;whiteSpace=wrap;html=1;" parent="1" vertex="1">
                    <mxGeometry x="-40" y="40" width="480" height="520" as="geometry"/>
                </mxCell>
                <mxCell id="18" value="&lt;font style=&quot;font-size: 33px;&quot;&gt;Palette de couleurs&lt;/font&gt;" style="shape=note;whiteSpace=wrap;html=1;backgroundOutline=1;darkOpacity=0.05;fillStyle=solid;direction=west;gradientDirection=north;shadow=1;size=0;pointerEvents=1;fillColor=#647687;fontColor=#ffffff;strokeColor=#314354;" parent="1" vertex="1">
                    <mxGeometry x="-30" y="50" width="460" height="60" as="geometry"/>
                </mxCell>
                <mxCell id="21" value="" style="rounded=0;whiteSpace=wrap;html=1;fontSize=33;fillColor=#647687;fontColor=#ffffff;strokeColor=#314354;" parent="1" vertex="1">
                    <mxGeometry x="-30" y="140" width="460" height="410" as="geometry"/>
                </mxCell>
                <mxCell id="20" value="&lt;p style=&quot;line-height: 300%;&quot;&gt;&lt;font style=&quot;font-size: 20px;&quot;&gt;Couleur de fond du site : #191919&lt;br&gt;&amp;nbsp;Couleur de fond du contenu : #2c2c2c&lt;br&gt;&amp;nbsp;Couleur de la police : #D9D9D9&lt;br&gt;&amp;nbsp;Couleur de fond des boutons : #6d3e39&lt;br&gt;&amp;nbsp;Couleur de fond des boutons en hover : #95514b&lt;br&gt;&amp;nbsp;Couleur de la police des boutons : #ffffff&lt;br&gt;&amp;nbsp;Couleur de la police des boutons en hover: #ffffff&lt;/font&gt;&lt;/p&gt;" style="text;html=1;strokeColor=none;fillColor=none;align=center;verticalAlign=middle;whiteSpace=wrap;rounded=0;fontSize=17;" parent="1" vertex="1">
                    <mxGeometry x="-40" y="315" width="480" height="30" as="geometry"/>
                </mxCell>
                <mxCell id="123" style="edgeStyle=orthogonalEdgeStyle;html=1;entryX=0.5;entryY=0;entryDx=0;entryDy=0;fontSize=12;" parent="1" source="22" target="26" edge="1">
                    <mxGeometry relative="1" as="geometry">
                        <Array as="points">
                            <mxPoint x="-140" y="860"/>
                            <mxPoint x="-140" y="860"/>
                        </Array>
                    </mxGeometry>
                </mxCell>
                <mxCell id="157" value="Rue principale" style="edgeLabel;html=1;align=center;verticalAlign=middle;resizable=0;points=[];fontSize=12;" parent="123" vertex="1" connectable="0">
                    <mxGeometry x="-0.0117" y="3" relative="1" as="geometry">
                        <mxPoint as="offset"/>
                    </mxGeometry>
                </mxCell>
                <mxCell id="128" style="edgeStyle=orthogonalEdgeStyle;html=1;exitX=1;exitY=0.5;exitDx=0;exitDy=0;entryX=0;entryY=0.5;entryDx=0;entryDy=0;fontSize=12;" parent="1" source="22" target="61" edge="1">
                    <mxGeometry relative="1" as="geometry"/>
                </mxCell>
                <mxCell id="130" value="Aller au poste de police" style="edgeLabel;html=1;align=center;verticalAlign=middle;resizable=0;points=[];fontSize=12;" parent="128" vertex="1" connectable="0">
                    <mxGeometry x="0.165" y="-1" relative="1" as="geometry">
                        <mxPoint x="-25" y="-1" as="offset"/>
                    </mxGeometry>
                </mxCell>
                <mxCell id="22" value="Il y a deux endroits qui vous tapent à l'oeil." style="rhombus;whiteSpace=wrap;html=1;" parent="1" vertex="1">
                    <mxGeometry x="-225" y="720" width="170" height="110" as="geometry"/>
                </mxCell>
                <mxCell id="24" style="edgeStyle=none;html=1;exitX=0.5;exitY=1;exitDx=0;exitDy=0;entryX=0.5;entryY=0;entryDx=0;entryDy=0;" parent="1" source="23" target="22" edge="1">
                    <mxGeometry relative="1" as="geometry"/>
                </mxCell>
                <mxCell id="23" value="Vous eménagez dans une ville mystèrieuse&amp;nbsp;" style="rounded=1;whiteSpace=wrap;html=1;" parent="1" vertex="1">
                    <mxGeometry x="-205" y="590" width="130" height="60" as="geometry"/>
                </mxCell>
                <mxCell id="158" style="edgeStyle=orthogonalEdgeStyle;html=1;exitX=0.5;exitY=1;exitDx=0;exitDy=0;fontSize=12;" parent="1" source="26" target="59" edge="1">
                    <mxGeometry relative="1" as="geometry"/>
                </mxCell>
                <mxCell id="26" value="Vous vous promenez&lt;br&gt;Vous entendez des murmures et voyez des ombres,&amp;nbsp;" style="rounded=1;whiteSpace=wrap;html=1;" parent="1" vertex="1">
                    <mxGeometry x="-200" y="936.25" width="120" height="67.5" as="geometry"/>
                </mxCell>
                <mxCell id="142" style="edgeStyle=orthogonalEdgeStyle;html=1;exitX=0;exitY=0.5;exitDx=0;exitDy=0;entryX=1;entryY=0.5;entryDx=0;entryDy=0;fontSize=12;" parent="1" source="45" target="26" edge="1">
                    <mxGeometry relative="1" as="geometry"/>
                </mxCell>
                <mxCell id="143" value="Délaisser" style="edgeLabel;html=1;align=center;verticalAlign=middle;resizable=0;points=[];fontSize=12;" parent="142" vertex="1" connectable="0">
                    <mxGeometry x="-0.142" y="2" relative="1" as="geometry">
                        <mxPoint x="-23" y="-2" as="offset"/>
                    </mxGeometry>
                </mxCell>
                <mxCell id="146" style="edgeStyle=orthogonalEdgeStyle;html=1;exitX=1;exitY=0.5;exitDx=0;exitDy=0;entryX=0;entryY=0.5;entryDx=0;entryDy=0;fontSize=12;" parent="1" source="45" target="54" edge="1">
                    <mxGeometry relative="1" as="geometry"/>
                </mxCell>
                <mxCell id="147" value="&lt;b style=&quot;&quot;&gt;Persévérer&lt;/b&gt;" style="edgeLabel;html=1;align=center;verticalAlign=middle;resizable=0;points=[];fontSize=12;" parent="146" vertex="1" connectable="0">
                    <mxGeometry x="0.2419" y="1" relative="1" as="geometry">
                        <mxPoint x="-17" y="1" as="offset"/>
                    </mxGeometry>
                </mxCell>
                <mxCell id="45" value="&lt;span style=&quot;font-size: 12px;&quot;&gt;Les affiches de disparition sont incomplètes...&lt;/span&gt;" style="rhombus;whiteSpace=wrap;html=1;fontSize=11;" parent="1" vertex="1">
                    <mxGeometry x="115" y="925" width="170" height="90" as="geometry"/>
                </mxCell>
                <mxCell id="145" style="edgeStyle=orthogonalEdgeStyle;html=1;exitX=1;exitY=0.5;exitDx=0;exitDy=0;entryX=1;entryY=0.5;entryDx=0;entryDy=0;fontSize=12;" parent="1" source="54" target="23" edge="1">
                    <mxGeometry relative="1" as="geometry">
                        <Array as="points">
                            <mxPoint x="600" y="970"/>
                            <mxPoint x="600" y="620"/>
                        </Array>
                    </mxGeometry>
                </mxCell>
                <mxCell id="54" value="vous baissez vos gardes et une créature vous tue." style="rounded=1;whiteSpace=wrap;html=1;fontSize=11;" parent="1" vertex="1">
                    <mxGeometry x="414" y="940" width="120" height="60" as="geometry"/>
                </mxCell>
                <mxCell id="136" style="edgeStyle=orthogonalEdgeStyle;html=1;entryX=1;entryY=0.5;entryDx=0;entryDy=0;fontSize=12;" parent="1" source="59" target="66" edge="1">
                    <mxGeometry relative="1" as="geometry"/>
                </mxCell>
                <mxCell id="138" value="se replier" style="edgeLabel;html=1;align=center;verticalAlign=middle;resizable=0;points=[];fontSize=12;" parent="136" vertex="1" connectable="0">
                    <mxGeometry x="0.2392" relative="1" as="geometry">
                        <mxPoint x="22" as="offset"/>
                    </mxGeometry>
                </mxCell>
                <mxCell id="153" style="edgeStyle=orthogonalEdgeStyle;html=1;exitX=0.5;exitY=1;exitDx=0;exitDy=0;entryX=0.5;entryY=0;entryDx=0;entryDy=0;fontSize=12;" parent="1" source="59" target="84" edge="1">
                    <mxGeometry relative="1" as="geometry"/>
                </mxCell>
                <mxCell id="154" value="Continuer" style="edgeLabel;html=1;align=center;verticalAlign=middle;resizable=0;points=[];fontSize=12;" parent="153" vertex="1" connectable="0">
                    <mxGeometry x="-0.2485" relative="1" as="geometry">
                        <mxPoint as="offset"/>
                    </mxGeometry>
                </mxCell>
                <mxCell id="59" value="&lt;span style=&quot;font-size: 12px;&quot;&gt;Vous penser a courir vers votre véhicule ou continuer l'enquête&lt;br&gt;&lt;/span&gt;" style="rhombus;whiteSpace=wrap;html=1;fontSize=11;" parent="1" vertex="1">
                    <mxGeometry x="-235" y="1070" width="190" height="80" as="geometry"/>
                </mxCell>
                <mxCell id="144" style="edgeStyle=orthogonalEdgeStyle;html=1;exitX=0.5;exitY=1;exitDx=0;exitDy=0;entryX=0.5;entryY=0;entryDx=0;entryDy=0;fontSize=12;" parent="1" source="61" target="45" edge="1">
                    <mxGeometry relative="1" as="geometry"/>
                </mxCell>
                <mxCell id="61" value="Vous trouvez un pistolet sur un bureau, vous trouvez aussi&amp;nbsp;&lt;span style=&quot;font-size: 12px;&quot;&gt;des affiche de disparitions.&lt;/span&gt;" style="rounded=1;whiteSpace=wrap;html=1;fontSize=11;" parent="1" vertex="1">
                    <mxGeometry x="135" y="740" width="130" height="67.5" as="geometry"/>
                </mxCell>
                <mxCell id="70" style="edgeStyle=orthogonalEdgeStyle;html=1;exitX=0;exitY=0.5;exitDx=0;exitDy=0;entryX=0;entryY=0.5;entryDx=0;entryDy=0;fontSize=11;" parent="1" source="66" target="23" edge="1">
                    <mxGeometry relative="1" as="geometry">
                        <Array as="points">
                            <mxPoint x="-537" y="1120"/>
                            <mxPoint x="-590" y="1120"/>
                            <mxPoint x="-590" y="620"/>
                        </Array>
                    </mxGeometry>
                </mxCell>
                <mxCell id="66" value="Lors de votre fuite, vous perdez votre chemin dû au brouillard et vous finissez par mourir de faim" style="rounded=1;whiteSpace=wrap;html=1;fontSize=11;" parent="1" vertex="1">
                    <mxGeometry x="-537" y="1075" width="130" height="70" as="geometry"/>
                </mxCell>
                <mxCell id="155" style="edgeStyle=orthogonalEdgeStyle;html=1;exitX=0.5;exitY=1;exitDx=0;exitDy=0;entryX=0.5;entryY=0;entryDx=0;entryDy=0;fontSize=12;" parent="1" source="84" target="86" edge="1">
                    <mxGeometry relative="1" as="geometry"/>
                </mxCell>
                <mxCell id="84" value="Vous prenez votre conrage et continue de l'avant, un peu plus tard..." style="rounded=1;whiteSpace=wrap;html=1;fontSize=11;" parent="1" vertex="1">
                    <mxGeometry x="-200" y="1260" width="120" height="50" as="geometry"/>
                </mxCell>
                <mxCell id="131" style="edgeStyle=orthogonalEdgeStyle;html=1;exitX=0;exitY=0.5;exitDx=0;exitDy=0;entryX=1;entryY=0.5;entryDx=0;entryDy=0;fontSize=12;" parent="1" source="86" target="88" edge="1">
                    <mxGeometry relative="1" as="geometry"/>
                </mxCell>
                <mxCell id="132" value="Attends" style="edgeLabel;html=1;align=center;verticalAlign=middle;resizable=0;points=[];fontSize=12;" parent="131" vertex="1" connectable="0">
                    <mxGeometry x="0.2806" y="1" relative="1" as="geometry">
                        <mxPoint x="24" y="-1" as="offset"/>
                    </mxGeometry>
                </mxCell>
                <mxCell id="140" style="edgeStyle=orthogonalEdgeStyle;html=1;exitX=1;exitY=0.5;exitDx=0;exitDy=0;entryX=0;entryY=0.5;entryDx=0;entryDy=0;fontSize=12;" parent="1" source="86" target="91" edge="1">
                    <mxGeometry relative="1" as="geometry"/>
                </mxCell>
                <mxCell id="141" value="Tirer dessus" style="edgeLabel;html=1;align=center;verticalAlign=middle;resizable=0;points=[];fontSize=12;" parent="140" vertex="1" connectable="0">
                    <mxGeometry x="-0.2211" y="-4" relative="1" as="geometry">
                        <mxPoint x="47" y="-4" as="offset"/>
                    </mxGeometry>
                </mxCell>
                <mxCell id="156" style="edgeStyle=orthogonalEdgeStyle;html=1;exitX=0.5;exitY=1;exitDx=0;exitDy=0;entryX=0.5;entryY=0;entryDx=0;entryDy=0;fontSize=12;" parent="1" source="86" target="109" edge="1">
                    <mxGeometry relative="1" as="geometry">
                        <Array as="points">
                            <mxPoint x="-140" y="1490"/>
                            <mxPoint x="-140" y="1490"/>
                        </Array>
                    </mxGeometry>
                </mxCell>
                <mxCell id="159" value="Lancer le pistolet" style="edgeLabel;html=1;align=center;verticalAlign=middle;resizable=0;points=[];fontSize=12;" parent="156" vertex="1" connectable="0">
                    <mxGeometry x="-0.2543" y="1" relative="1" as="geometry">
                        <mxPoint as="offset"/>
                    </mxGeometry>
                </mxCell>
                <mxCell id="86" value="&lt;span style=&quot;white-space: pre;&quot;&gt;&#9;&lt;/span&gt;Une créature fait son apparition mais ne bouge pas" style="rhombus;whiteSpace=wrap;html=1;fontSize=11;" parent="1" vertex="1">
                    <mxGeometry x="-233.75" y="1370" width="187.5" height="70" as="geometry"/>
                </mxCell>
                <mxCell id="133" style="edgeStyle=orthogonalEdgeStyle;html=1;entryX=0;entryY=0.5;entryDx=0;entryDy=0;fontSize=12;exitX=0;exitY=0.5;exitDx=0;exitDy=0;" parent="1" source="88" target="23" edge="1">
                    <mxGeometry relative="1" as="geometry">
                        <Array as="points">
                            <mxPoint x="-590" y="1405"/>
                            <mxPoint x="-590" y="620"/>
                        </Array>
                    </mxGeometry>
                </mxCell>
                <mxCell id="88" value="La créature saute dessus et vous tue" style="rounded=1;whiteSpace=wrap;html=1;fontSize=11;" parent="1" vertex="1">
                    <mxGeometry x="-540" y="1375" width="120" height="60" as="geometry"/>
                </mxCell>
                <mxCell id="139" style="edgeStyle=orthogonalEdgeStyle;html=1;exitX=1;exitY=0.5;exitDx=0;exitDy=0;entryX=1;entryY=0.5;entryDx=0;entryDy=0;fontSize=12;" parent="1" source="91" target="23" edge="1">
                    <mxGeometry relative="1" as="geometry">
                        <Array as="points">
                            <mxPoint x="600" y="1405"/>
                            <mxPoint x="600" y="620"/>
                        </Array>
                    </mxGeometry>
                </mxCell>
                <mxCell id="91" value="La créature tombe par terre et une horde de monstres débarque et vous tue" style="rounded=1;whiteSpace=wrap;html=1;fontSize=11;" parent="1" vertex="1">
                    <mxGeometry x="414" y="1375" width="120" height="60" as="geometry"/>
                </mxCell>
                <mxCell id="109" value="La créature pars courir après le pistolet et vous laisse une ouverture afin de vous enfuir" style="rounded=1;whiteSpace=wrap;html=1;fontSize=12;" parent="1" vertex="1">
                    <mxGeometry x="-205" y="1510" width="130" height="80" as="geometry"/>
                </mxCell>
                <mxCell id="160" value="où des évenements étranges se produit Vous arrivez à la ville la nuit, la route est déserte et embrumé&lt;br&gt;+ détail de la ville,&lt;br&gt;&lt;br&gt;le poste et la rue principal&lt;br&gt;&lt;br&gt;&lt;span style=&quot;font-size: 11px;&quot;&gt;Vous trouvez un pistolet sur un bureau et vous le prenez, pendant la recherche vous trouvez aussi&amp;nbsp;&lt;/span&gt;des affiche démontrant des disparitions.&lt;br&gt;&lt;br&gt;, vous commencez a avoir la chaire de poule, votre instinct de survie&lt;br&gt;entre en jeu,&amp;nbsp;&lt;br&gt;" style="rounded=0;whiteSpace=wrap;html=1;fontSize=12;" parent="1" vertex="1">
                    <mxGeometry x="-1070" y="600" width="350" height="640" as="geometry"/>
                </mxCell>
            </root>
        </mxGraphModel>
    </diagram>
</mxfile>